<svg width="38" height="38" viewBox="0 0 38 38" fill="none" xmlns="http://www.w3.org/2000/svg">
<path d="M30.4 11.0833H29.7825C29.9722 10.5765 30.074 10.041 30.0833 9.49998C30.0501 8.21208 29.5086 6.98964 28.5771 6.09966C27.6456 5.20967 26.3997 4.72446 25.1117 4.74998C23.8458 4.77732 22.6107 5.14448 21.5354 5.81301C20.4602 6.48154 19.5845 7.42686 19 8.54998C18.4155 7.42686 17.5398 6.48154 16.4646 5.81301C15.3893 5.14448 14.1541 4.77732 12.8883 4.74998C11.6003 4.72446 10.3544 5.20967 9.42289 6.09966C8.49137 6.98964 7.94987 8.21208 7.91666 9.49998C7.92602 10.041 8.02776 10.5765 8.2175 11.0833H7.6C7.18335 11.1229 6.77868 11.2446 6.40939 11.4416C6.04009 11.6385 5.71349 11.9066 5.44847 12.2305C5.18345 12.5545 4.98526 12.9277 4.86537 13.3287C4.74549 13.7297 4.70627 14.1504 4.75 14.5666V20.2666C4.67603 21.0334 4.87315 21.8017 5.30707 22.4382C5.74099 23.0746 6.38426 23.5388 7.125 23.75V30.6691C7.17387 31.3873 7.50032 32.0583 8.03522 32.54C8.57012 33.0217 9.27148 33.2763 9.99083 33.25H28.0092C28.7389 33.2758 29.4493 33.0125 29.9859 32.5173C30.5226 32.0222 30.8421 31.3352 30.875 30.6058V23.75C31.6157 23.5388 32.259 23.0746 32.6929 22.4382C33.1268 21.8017 33.324 21.0334 33.25 20.2666V14.5666C33.2937 14.1504 33.2545 13.7297 33.1346 13.3287C33.0147 12.9277 32.8165 12.5545 32.5515 12.2305C32.2865 11.9066 31.9599 11.6385 31.5906 11.4416C31.2213 11.2446 30.8166 11.1229 30.4 11.0833ZM30.0833 14.5666V20.2666C30.1023 20.3713 30.1023 20.4786 30.0833 20.5833H20.5833V14.25H30.0833C30.1023 14.3547 30.1023 14.4619 30.0833 14.5666ZM25.1117 7.91665C25.5602 7.89051 26.001 8.04195 26.3388 8.33824C26.6766 8.63453 26.8841 9.05186 26.9167 9.49998C26.8841 9.94811 26.6766 10.3654 26.3388 10.6617C26.001 10.958 25.5602 11.1095 25.1117 11.0833H21.2167C21.4937 10.2375 22.0082 9.48914 22.6989 8.92766C23.3895 8.36617 24.2271 8.01521 25.1117 7.91665ZM11.0833 9.49998C11.1159 9.05186 11.3234 8.63453 11.6612 8.33824C11.999 8.04195 12.4398 7.89051 12.8883 7.91665C13.7701 8.01808 14.6043 8.37035 15.2919 8.93164C15.9794 9.49293 16.4916 10.2397 16.7675 11.0833H12.8883C12.4398 11.1095 11.999 10.958 11.6612 10.6617C11.3234 10.3654 11.1159 9.94811 11.0833 9.49998ZM7.91666 14.5666C7.89766 14.4619 7.89766 14.3547 7.91666 14.25H17.4167V20.5833H7.91666C7.89766 20.4786 7.89766 20.3713 7.91666 20.2666V14.5666ZM10.2917 23.75H17.4167V30.0833H10.2917V23.75ZM20.5833 30.0833V23.75H27.7083V30.0833H20.5833Z" fill="white"/>
</svg>
